M48
;GenerationSoftware,Autodesk,EAGLE,9.4.2*%
;CreationDate,2019-08-01T07:41:03Z*%
FMAT,2
ICI,OFF
METRIC,TZ,000.000
T9C0.550
T8C0.810
T7C0.850
T6C1.000
T5C1.016
T4C1.680
T3C2.000
T2C4.500
T1C5.500
%
G90
M71
T1
X107315Y80010
X91440Y50165
X123190Y50165
X107315Y20320
T2
X83058Y36068
X58674Y50292
X83058Y64262
T3
X70485Y13335
X40005Y4445
X50165Y4445
X52070Y23495
X52070Y13335
X21590Y4445
X31750Y4445
X33655Y23495
X33655Y13335
X57785Y87630
X57785Y77470
X70485Y23495
X16510Y13335
X16510Y23495
X46355Y87630
X46355Y77470
X40640Y87630
X40640Y77470
X52070Y87630
X52070Y77470
X155575Y4445
X155575Y14605
X14605Y5715
X4445Y5715
X58420Y4445
X68580Y4445
T4
X8890Y16510
X8890Y11810
X8890Y21210
T5
X20320Y39370
X17780Y41910
X17780Y39370
X15240Y41910
X15240Y39370
X12700Y41910
X12700Y39370
X10160Y41910
X10160Y39370
X7620Y41910
X7620Y39370
X5080Y41910
X5080Y39370
X141605Y22860
X154305Y82550
X144145Y22860
X146685Y22860
X149225Y22860
X125730Y8890
X125730Y6350
X133604Y56515
X136144Y56515
X136144Y53975
X133604Y51435
X136144Y51435
X133604Y48895
X136144Y48895
X133604Y46355
X136144Y46355
X133604Y43815
X136144Y43815
X153924Y56515
X156464Y56515
X153924Y53975
X156464Y53975
X153924Y51435
X156464Y51435
X153924Y48895
X156464Y48895
X153924Y46355
X156464Y46355
X153924Y43815
X156464Y43815
X141605Y82550
X144145Y82550
X146685Y82550
X149225Y82550
X151765Y82550
X133604Y53975
X154305Y95250
X151765Y95250
X149225Y95250
X146685Y95250
X144145Y95250
X141605Y95250
X7620Y95250
X10160Y95250
X12700Y95250
X15240Y95250
X17780Y95250
X20320Y95250
X22860Y95250
X25400Y95250
X27940Y85090
X27940Y82550
X25400Y85090
X25400Y82550
X22860Y85090
X22860Y82550
X20320Y85090
X20320Y82550
X17780Y85090
X17780Y82550
X15240Y85090
X15240Y82550
X12700Y85090
X12700Y82550
X10160Y85090
X10160Y82550
X7620Y85090
X7620Y82550
X5080Y85090
X5080Y82550
X27940Y41910
X27940Y39370
X25400Y41910
X25400Y39370
X22860Y41910
X22860Y39370
X20320Y41910
T6
X39855Y27360
X64770Y27360
X58270Y27360
X46355Y10795
X39855Y10795
X27940Y10795
X21440Y10795
X27940Y15295
X21440Y15295
X46355Y15295
X39855Y15295
X46355Y22860
X39855Y22860
X46355Y27360
X27940Y22860
X21440Y22860
X27940Y27360
X21440Y27360
X64770Y10795
X58270Y10795
X64770Y15295
X58270Y15295
X64770Y22860
X58270Y22860
T7
X141605Y11430
X141605Y6430
T8
X57785Y92180
X57785Y93980
X57785Y95780
X52070Y92180
X52070Y95780
X40640Y92180
X40640Y93980
X40640Y95780
X46355Y92180
X46355Y93980
X46355Y95780
X52070Y93980
T9
X6858Y45212
X27178Y67564
X133096Y96520
X28956Y65532
X10160Y91440
M30