G04 EAGLE Gerber RS-274X export*
G75*
%MOMM*%
%FSLAX34Y34*%
%LPD*%
%INSoldermask Bottom*%
%IPPOS*%
%AMOC8*
5,1,8,0,0,1.08239X$1,22.5*%
G01*
%ADD10C,1.812800*%
%ADD11R,1.662800X1.662800*%
%ADD12C,1.662800*%
%ADD13C,1.713200*%
%ADD14C,4.203200*%
%ADD15C,2.723200*%
%ADD16C,2.082800*%
%ADD17C,4.703200*%
%ADD18C,5.703200*%
%ADD19C,1.261200*%


D10*
X279400Y107950D03*
X214400Y107950D03*
X279400Y152950D03*
X214400Y152950D03*
D11*
X1416050Y114300D03*
D12*
X1416050Y64300D03*
D10*
X463550Y228600D03*
X398550Y228600D03*
X463550Y273600D03*
X398550Y273600D03*
X279400Y228600D03*
X214400Y228600D03*
X279400Y273600D03*
X214400Y273600D03*
X647700Y107950D03*
X582700Y107950D03*
X647700Y152950D03*
X582700Y152950D03*
X647700Y228600D03*
X582700Y228600D03*
X647700Y273600D03*
X582700Y273600D03*
X463550Y107950D03*
X398550Y107950D03*
X463550Y152950D03*
X398550Y152950D03*
D13*
X577850Y921800D03*
X577850Y939800D03*
X577850Y957800D03*
X520700Y921800D03*
X520700Y939800D03*
X520700Y957800D03*
X406400Y921800D03*
X406400Y939800D03*
X406400Y957800D03*
X463550Y921800D03*
X463550Y939800D03*
X463550Y957800D03*
D14*
X165100Y133350D03*
X165100Y234950D03*
X463550Y876300D03*
X463550Y774700D03*
X406400Y876300D03*
X406400Y774700D03*
X520700Y876300D03*
X520700Y774700D03*
X1555750Y44450D03*
X1555750Y146050D03*
X146050Y57150D03*
X44450Y57150D03*
X584200Y44450D03*
X685800Y44450D03*
X704850Y234950D03*
X704850Y133350D03*
X400050Y44450D03*
X501650Y44450D03*
X520700Y234950D03*
X520700Y133350D03*
X215900Y44450D03*
X317500Y44450D03*
X336550Y234950D03*
X336550Y133350D03*
X577850Y876300D03*
X577850Y774700D03*
D15*
X88900Y212100D03*
X88900Y165100D03*
X88900Y118100D03*
D16*
X1416050Y825500D03*
X1441450Y825500D03*
X1466850Y825500D03*
X1492250Y825500D03*
X1517650Y825500D03*
X1543050Y825500D03*
X1543050Y952500D03*
X1517650Y952500D03*
X1492250Y952500D03*
X1466850Y952500D03*
X1441450Y952500D03*
X1416050Y952500D03*
X76200Y952500D03*
X101600Y952500D03*
X127000Y952500D03*
X152400Y952500D03*
X177800Y952500D03*
X203200Y952500D03*
X228600Y952500D03*
X254000Y952500D03*
X279400Y850900D03*
X279400Y825500D03*
X254000Y850900D03*
X254000Y825500D03*
X228600Y850900D03*
X228600Y825500D03*
X203200Y850900D03*
X203200Y825500D03*
X177800Y850900D03*
X177800Y825500D03*
X152400Y850900D03*
X152400Y825500D03*
X127000Y850900D03*
X127000Y825500D03*
X101600Y850900D03*
X101600Y825500D03*
X76200Y850900D03*
X76200Y825500D03*
X50800Y850900D03*
X50800Y825500D03*
X279400Y419100D03*
X279400Y393700D03*
X254000Y419100D03*
X254000Y393700D03*
X228600Y419100D03*
X228600Y393700D03*
X203200Y419100D03*
X203200Y393700D03*
X177800Y419100D03*
X177800Y393700D03*
X152400Y419100D03*
X152400Y393700D03*
X127000Y419100D03*
X127000Y393700D03*
X101600Y419100D03*
X101600Y393700D03*
X76200Y419100D03*
X76200Y393700D03*
X50800Y419100D03*
X50800Y393700D03*
X1416050Y228600D03*
X1441450Y228600D03*
X1466850Y228600D03*
X1492250Y228600D03*
X1257300Y88900D03*
X1257300Y63500D03*
X1336040Y565150D03*
X1361440Y565150D03*
X1336040Y539750D03*
X1361440Y539750D03*
X1336040Y514350D03*
X1361440Y514350D03*
X1336040Y488950D03*
X1361440Y488950D03*
X1336040Y463550D03*
X1361440Y463550D03*
X1336040Y438150D03*
X1361440Y438150D03*
X1539240Y565150D03*
X1564640Y565150D03*
X1539240Y539750D03*
X1564640Y539750D03*
X1539240Y514350D03*
X1564640Y514350D03*
X1539240Y488950D03*
X1564640Y488950D03*
X1539240Y463550D03*
X1564640Y463550D03*
X1539240Y438150D03*
X1564640Y438150D03*
D17*
X586740Y502920D03*
X830580Y642620D03*
X830580Y360680D03*
D18*
X1073150Y800100D03*
X914400Y501650D03*
X1231900Y501650D03*
X1073150Y203200D03*
D19*
X101600Y914400D03*
X68580Y452120D03*
X271780Y675640D03*
X1330960Y965200D03*
X289560Y655320D03*
M02*
